<svg width="16" height="16" viewBox="0 0 16 16" fill="none" xmlns="http://www.w3.org/2000/svg">
<g clip-path="url(#clip0_253_140)">
<path d="M8.00001 1.33333C4.32001 1.33333 1.33334 4.31999 1.33334 7.99999C1.33334 11.68 4.32001 14.6667 8.00001 14.6667C11.68 14.6667 14.6667 11.68 14.6667 7.99999C14.6667 4.31999 11.68 1.33333 8.00001 1.33333ZM8.00001 3.33333C9.10668 3.33333 10 4.22666 10 5.33333C10 6.43999 9.10668 7.33333 8.00001 7.33333C6.89334 7.33333 6.00001 6.43999 6.00001 5.33333C6.00001 4.22666 6.89334 3.33333 8.00001 3.33333ZM8.00001 12.8C6.33334 12.8 4.86001 11.9467 4.00001 10.6533C4.02001 9.32666 6.66668 8.59999 8.00001 8.59999C9.32668 8.59999 11.98 9.32666 12 10.6533C11.14 11.9467 9.66668 12.8 8.00001 12.8Z" fill="#C2C2C2"/>
</g>
<defs>
<clipPath id="clip0_253_140">
<rect width="16" height="16" fill="white"/>
</clipPath>
</defs>
</svg>
