<svg width="132" height="32" viewBox="0 0 132 32" fill="none" xmlns="http://www.w3.org/2000/svg">
<path d="M4.16 4.80005V11.2H5.168C5.872 10.08 7.248 9.31205 9.104 9.31205C13.04 9.31205 15.456 12.512 15.456 16.624C15.456 21.104 12.8 23.952 9.136 23.952C7.248 23.952 5.872 23.216 5.2 22.032H4.16V23.68H0V4.80005H4.16ZM7.744 20.144C9.904 20.144 11.328 18.6081 11.328 16.6081C11.328 14.64 9.904 13.104 7.744 13.104C5.552 13.104 4.16 14.64 4.16 16.6081C4.16 18.6081 5.552 20.144 7.744 20.144Z" fill="black"/>
<path d="M33.856 13.3921V9.58407H35.824V6.32007H39.952V9.58407H43.504V13.3921H39.952V17.7441C39.952 19.2481 40.384 19.8721 41.872 19.8721H43.52V23.6801H41.744C37.392 23.6801 35.84 21.8721 35.84 17.7921V13.3921H33.856Z" fill="black"/>
<path d="M51.04 14.976H54.4V14.928C54.4 13.376 53.408 12.704 51.936 12.704C50.464 12.704 49.712 13.408 49.472 14.368H45.472C45.744 11.44 47.776 9.31201 52.016 9.31201C56.288 9.31201 58.56 11.472 58.56 15.008V23.68H54.4V22.448H53.392C52.736 23.216 51.744 23.952 49.776 23.952C46.816 23.952 45.296 21.984 45.296 19.488C45.296 16.64 47.12 14.976 51.04 14.976ZM51.584 20.528C52.592 20.528 53.52 20.336 54.4 19.792V17.664H51.552C50.208 17.664 49.424 18.16 49.424 19.088C49.424 20.032 50.224 20.528 51.584 20.528Z" fill="black"/>
<path d="M60.944 23.68V9.58401H65.104V10.784H66.112C66.848 9.90401 67.696 9.31201 69.536 9.31201C72.688 9.31201 74.384 11.36 74.384 14.896V23.68H70.256V15.792C70.256 14.016 69.488 13.104 67.744 13.104C66.48 13.104 65.696 13.456 65.12 13.904V23.68H60.944Z" fill="black"/>
<path d="M78.848 4.22412C80.192 4.22412 81.12 5.12012 81.12 6.41612C81.12 7.61612 80.192 8.54412 78.848 8.54412C77.504 8.54412 76.544 7.61612 76.544 6.41612C76.544 5.12012 77.504 4.22412 78.848 4.22412ZM80.928 9.58412V23.6801H76.768V9.58412H80.928Z" fill="black"/>
<path d="M93.264 11.2H94.272V9.58401H98.432V27.776H94.272V22.032H93.232C92.544 23.216 91.184 23.952 89.296 23.952C85.632 23.952 82.976 21.104 82.976 16.624C82.976 12.512 85.392 9.31201 89.328 9.31201C91.184 9.31201 92.56 10.08 93.264 11.2ZM90.688 20.144C92.88 20.144 94.272 18.608 94.272 16.608C94.272 14.64 92.88 13.104 90.688 13.104C88.528 13.104 87.104 14.64 87.104 16.608C87.104 18.608 88.528 20.144 90.688 20.144Z" fill="black"/>
<path d="M100.816 18.3682V9.58423H104.944V17.4722C104.944 19.2482 105.712 20.1602 107.456 20.1602C108.72 20.1602 109.504 19.8082 110.08 19.3602V9.58423H114.24V23.6802H110.08V22.4802H109.072C108.336 23.3602 107.488 23.9522 105.648 23.9522C102.512 23.9522 100.816 21.9042 100.816 18.3682Z" fill="black"/>
<path d="M116.304 16.6081C116.304 12.4961 119.312 9.29614 123.856 9.29614C128.56 9.29614 131.36 12.5281 131.36 16.4641C131.36 16.8961 131.328 17.2801 131.312 17.5521H120.304C120.544 19.4401 121.808 20.5281 123.856 20.5281C125.408 20.5281 126.544 19.9841 127.008 18.9761H131.168C130.352 21.8561 127.808 23.9361 123.856 23.9361C119.312 23.9521 116.304 20.7201 116.304 16.6081ZM127.168 14.9121C126.736 13.6321 125.632 12.6881 123.856 12.6881C122.112 12.6881 120.896 13.5841 120.464 14.9121H127.168Z" fill="black"/>
<path d="M24.016 22.9122C23.92 22.1282 24.48 21.4082 25.28 21.3122C26.064 21.2162 26.784 21.7762 26.88 22.5762C26.976 23.3602 26.416 24.0802 25.616 24.1762C25.552 24.1762 25.504 24.1922 25.44 24.1922C24.72 24.1762 24.096 23.6322 24.016 22.9122ZM22.016 23.7282C21.264 23.4402 20.896 22.6082 21.184 21.8722C21.472 21.1202 22.304 20.7522 23.04 21.0402C23.776 21.3282 24.16 22.1602 23.872 22.8962C23.648 23.4722 23.104 23.8242 22.528 23.8242C22.352 23.8242 22.176 23.7922 22.016 23.7282ZM27.008 22.5122C26.56 21.8562 26.72 20.9602 27.376 20.5122C28.032 20.0642 28.928 20.2242 29.376 20.8802C29.824 21.5362 29.664 22.4322 29.008 22.8802C28.752 23.0562 28.464 23.1362 28.192 23.1362C27.728 23.1362 27.28 22.9122 27.008 22.5122ZM19.024 21.6642C18.496 21.0722 18.544 20.1602 19.136 19.6322C19.728 19.1042 20.64 19.1522 21.168 19.7442C21.696 20.3362 21.648 21.2482 21.056 21.7762C20.784 22.0162 20.448 22.1442 20.096 22.1442C19.696 22.1602 19.312 21.9842 19.024 21.6642ZM29.472 20.7682C28.768 20.4002 28.496 19.5202 28.864 18.8162C29.232 18.1122 30.112 17.8402 30.816 18.2082C31.52 18.5762 31.792 19.4562 31.424 20.1602C31.168 20.6562 30.672 20.9282 30.144 20.9282C29.904 20.9282 29.68 20.8802 29.472 20.7682ZM17.328 18.4642C17.136 17.6962 17.616 16.9122 18.384 16.7202C19.152 16.5282 19.936 17.0082 20.128 17.7762C20.32 18.5442 19.84 19.3282 19.072 19.5202C18.96 19.5522 18.848 19.5682 18.72 19.5682C18.08 19.5522 17.488 19.1202 17.328 18.4642ZM29.392 16.6402C29.392 16.6242 29.392 16.6242 29.392 16.6402C29.392 16.6242 29.392 16.6242 29.392 16.6402C29.392 15.8242 30.032 15.1842 30.832 15.1842C31.632 15.1842 32.272 15.8242 32.272 16.6242V16.6402C32.272 17.4402 31.632 18.0802 30.832 18.0802C30.048 18.0802 29.392 17.4242 29.392 16.6402ZM18.384 16.5762C17.616 16.3842 17.136 15.6002 17.328 14.8322C17.52 14.0642 18.304 13.5842 19.072 13.7762C19.84 13.9682 20.32 14.7362 20.128 15.5202C19.968 16.1762 19.376 16.6242 18.736 16.6242C18.608 16.6082 18.496 16.6082 18.384 16.5762ZM28.848 14.4322C28.48 13.7282 28.736 12.8642 29.44 12.4802C30.144 12.1122 31.008 12.3682 31.392 13.0722C31.76 13.7762 31.504 14.6402 30.8 15.0242C30.592 15.1362 30.352 15.2002 30.128 15.2002C29.616 15.2002 29.12 14.9282 28.848 14.4322ZM19.136 13.6482C18.544 13.1202 18.48 12.2082 19.008 11.6162C19.536 11.0242 20.448 10.9602 21.04 11.4882C21.632 12.0162 21.696 12.9282 21.168 13.5202C20.88 13.8402 20.48 14.0002 20.08 14.0002C19.744 14.0002 19.408 13.8882 19.136 13.6482ZM27.36 12.7522C26.704 12.3042 26.544 11.4082 26.992 10.7522C27.44 10.0962 28.336 9.93621 28.992 10.3842C29.648 10.8322 29.808 11.7282 29.36 12.3842C29.088 12.7842 28.624 13.0082 28.176 13.0082C27.888 13.0082 27.6 12.9282 27.36 12.7522ZM21.152 11.4082C20.864 10.6722 21.248 9.82421 21.984 9.55221C22.72 9.26421 23.552 9.64821 23.84 10.3842C24.128 11.1202 23.744 11.9522 23.008 12.2402C22.832 12.3042 22.672 12.3362 22.496 12.3362C21.92 12.3362 21.376 11.9842 21.152 11.4082ZM25.248 11.9682C24.464 11.8722 23.888 11.1522 23.984 10.3682C24.08 9.58421 24.8 9.00821 25.584 9.10421C26.368 9.20021 26.944 9.92021 26.848 10.7042C26.768 11.4402 26.144 11.9682 25.424 11.9682C25.36 11.9682 25.312 11.9682 25.248 11.9682Z" fill="black"/>
<path d="M22.496 20.464C21.808 20.064 21.568 19.184 21.968 18.496C22.368 17.808 23.248 17.568 23.936 17.968C24.624 18.368 24.864 19.248 24.464 19.936C24.192 20.4 23.712 20.656 23.216 20.656C22.96 20.656 22.72 20.592 22.496 20.464ZM24.944 19.936C24.544 19.248 24.784 18.368 25.472 17.968C26.16 17.568 27.04 17.808 27.44 18.496C27.84 19.184 27.6 20.064 26.912 20.464C26.688 20.592 26.432 20.656 26.192 20.656C25.696 20.656 25.2 20.4 24.944 19.936ZM20.272 16.64C20.272 15.84 20.912 15.2 21.712 15.2C22.512 15.2 23.152 15.84 23.152 16.64C23.152 17.44 22.512 18.08 21.712 18.08C20.928 18.08 20.272 17.44 20.272 16.64ZM26.224 16.672C26.224 16.656 26.224 16.64 26.224 16.624C26.224 15.824 26.864 15.184 27.664 15.184C28.464 15.184 29.104 15.824 29.104 16.624V16.64C29.104 17.44 28.464 18.08 27.664 18.08C26.88 18.08 26.256 17.44 26.224 16.672ZM21.952 14.784C21.552 14.096 21.792 13.216 22.48 12.816C23.168 12.416 24.048 12.656 24.448 13.344C24.848 14.032 24.608 14.912 23.92 15.312C23.696 15.44 23.44 15.504 23.2 15.504C22.704 15.504 22.224 15.248 21.952 14.784ZM25.456 15.296C24.768 14.896 24.528 14.016 24.928 13.328C25.328 12.64 26.208 12.4 26.896 12.8C27.584 13.2 27.824 14.08 27.424 14.768C27.152 15.232 26.672 15.488 26.176 15.488C25.936 15.488 25.68 15.424 25.456 15.296Z" fill="black"/>
</svg>
